<?xml version="1.0" encoding="UTF-8" standalone="no"?>
<svg
   xmlns:dc="http://purl.org/dc/elements/1.1/"
   xmlns:cc="http://creativecommons.org/ns#"
   xmlns:rdf="http://www.w3.org/1999/02/22-rdf-syntax-ns#"
   xmlns:svg="http://www.w3.org/2000/svg"
   xmlns="http://www.w3.org/2000/svg"
   xmlns:sodipodi="http://sodipodi.sourceforge.net/DTD/sodipodi-0.dtd"
   xmlns:inkscape="http://www.inkscape.org/namespaces/inkscape"
   width="19.096636"
   height="21.400354"
   viewBox="0 0 5.0526516 5.6621772"
   version="1.1"
   id="svg12872"
   inkscape:version="1.0.2-2 (e86c870879, 2021-01-15)"
   sodipodi:docname="sino-bell.svg">
  <defs
     id="defs12866" />
  <sodipodi:namedview
     id="base"
     pagecolor="#ffffff"
     bordercolor="#666666"
     borderopacity="1.0"
     inkscape:pageopacity="0.0"
     inkscape:pageshadow="2"
     inkscape:zoom="22.4"
     inkscape:cx="6.0271687"
     inkscape:cy="11.323231"
     inkscape:document-units="mm"
     inkscape:current-layer="layer1"
     inkscape:document-rotation="0"
     showgrid="false"
     borderlayer="false"
     fit-margin-top="0.1"
     fit-margin-left="0.1"
     fit-margin-right="0.1"
     fit-margin-bottom="0.1"
     inkscape:pagecheckerboard="true"
     units="px"
     inkscape:window-width="1258"
     inkscape:window-height="728"
     inkscape:window-x="92"
     inkscape:window-y="0"
     inkscape:window-maximized="0" />
  <metadata
     id="metadata12869">
    <rdf:RDF>
      <cc:Work
         rdf:about="">
        <dc:format>image/svg+xml</dc:format>
        <dc:type
           rdf:resource="http://purl.org/dc/dcmitype/StillImage" />
        <dc:title></dc:title>
        <dc:creator>
          <cc:Agent>
            <dc:title>Luankisaki</dc:title>
          </cc:Agent>
        </dc:creator>
        <dc:date></dc:date>
      </cc:Work>
    </rdf:RDF>
  </metadata>
  <g
     inkscape:label="Layer 1"
     inkscape:groupmode="layer"
     id="layer1"
     transform="translate(-81.384389,-128.70462)">
    <path
       id="path12716-1"
       style="fill:#ffffff;fill-opacity:1;fill-rule:evenodd;stroke:none;stroke-width:0.547936;stroke-miterlimit:4;stroke-dasharray:none;stroke-opacity:1;paint-order:fill markers stroke"
       d="m 83.903481,128.73117 c -0.254056,-0.005 -0.472279,0.22543 -0.45217,0.47852 -0.157525,0.0775 -0.379693,0.13583 -0.538986,0.25478 -0.713607,0.4479 -1.021058,1.42482 -0.686779,2.19986 0.10377,0.38727 -0.25727,0.98523 -0.64027,1.30637 -0.357068,0.11456 -0.09797,0.53669 0.172082,0.56999 0.413137,0.0205 0.828784,0.003 1.242817,0.009 0.0291,0.42357 0.39175,0.79065 0.91054,0.79065 0.518789,0 0.881446,-0.36708 0.910539,-0.79065 0.414034,-0.006 0.829681,0.0115 1.242817,-0.009 0.27005,-0.0333 0.529151,-0.45543 0.172083,-0.56999 -0.383001,-0.32114 -0.744041,-0.9191 -0.640271,-1.30637 0.33428,-0.77504 0.02683,-1.75196 -0.686779,-2.19986 -0.159292,-0.11895 -0.38146,-0.17726 -0.538985,-0.25478 0.02011,-0.25308 -0.198115,-0.48385 -0.452171,-0.47852 -0.0024,-6e-5 -0.0048,5.2e-4 -0.0072,5.2e-4 -0.0024,1e-5 -0.0047,-5.2e-4 -0.0072,-5.2e-4 z m 0.438216,0.63408 c 0.354126,0.122 0.661035,0.37295 0.921906,0.80252 0.260959,0.42959 0.229616,1.1597 0.08578,1.3131 -0.09122,0.0468 -0.09178,-0.0618 -0.07441,-0.27905 0.06376,-0.72312 -0.311492,-1.462 -0.933276,-1.83657 z m 0.345197,4.28551 c -0.02836,0.14968 -0.111607,0.28846 -0.269232,0.41859 -0.157639,0.13013 -0.453308,0.16004 -0.523484,0.1111 -0.02419,-0.034 0.02983,-0.10337 0.11834,-0.10904 0.294783,-0.0167 0.559949,-0.14848 0.674376,-0.42065 z" />
  </g>
</svg>
